<svg width="24" height="27" viewBox="0 0 24 27" fill="none" xmlns="http://www.w3.org/2000/svg">
<path d="M21.75 11.4541L21.75 10.7041L20.25 10.7041L20.25 11.4541L21.75 11.4541ZM20.25 16.4541C20.25 16.8683 20.5858 17.2041 21 17.2041C21.4142 17.2041 21.75 16.8683 21.75 16.4541L20.25 16.4541ZM21 11.4541L20.25 11.4541L20.25 16.4541L21 16.4541L21.75 16.4541L21.75 11.4541L21 11.4541Z" fill="#FF9228"/>
<path d="M6 12.4541V19.7247C9.43862 22.7217 14.5614 22.7217 18 19.7247V12.4541" stroke="#FF9228" stroke-width="1.5"/>
<path d="M14.3886 14.5627C12.8887 15.3287 11.1113 15.3287 9.61144 14.5627L2.64465 11.003L9.61213 7.44534C11.1118 6.67946 12.8882 6.67946 14.3879 7.44534L21.3554 11.003L14.3886 14.5627Z" stroke="#FF9228" stroke-width="1.5"/>
</svg>
